<mxfile host="drawio-plugin" modified="2021-05-18T22:37:34.209Z" agent="5.0 (Windows NT 6.2; Win64; x64) AppleWebKit/537.36 (KHTML, like Gecko) Chrome/87.0.4280.141 Safari/537.36" version="14.6.6" etag="LnKXUTfeTTR5ZGU_TtCC" type="embed"><diagram id="wAKWtRomWVbUbl93O-DZ" name="Page-1"><mxGraphModel dx="730" dy="246" grid="1" gridSize="10" guides="1" tooltips="1" connect="1" arrows="1" fold="1" page="1" pageScale="1" pageWidth="850" pageHeight="1100" math="0" shadow="0"><root><mxCell id="0"/><mxCell id="1" parent="0"/><mxCell id="2" value="«interface»&#10;Facade" style="swimlane;fontStyle=1;align=center;verticalAlign=top;childLayout=stackLayout;horizontal=1;startSize=40;horizontalStack=0;resizeParent=1;resizeParentMax=0;resizeLast=0;collapsible=1;marginBottom=0;" vertex="1" parent="1"><mxGeometry x="320" y="100" width="160" height="114" as="geometry"/></mxCell><mxCell id="3" value="- subsystem1&#10;- subsystem2" style="text;strokeColor=none;fillColor=none;align=left;verticalAlign=top;spacingLeft=4;spacingRight=4;overflow=hidden;rotatable=0;points=[[0,0.5],[1,0.5]];portConstraint=eastwest;" vertex="1" parent="2"><mxGeometry y="40" width="160" height="40" as="geometry"/></mxCell><mxCell id="4" value="" style="line;strokeWidth=1;fillColor=none;align=left;verticalAlign=middle;spacingTop=-1;spacingLeft=3;spacingRight=3;rotatable=0;labelPosition=right;points=[];portConstraint=eastwest;" vertex="1" parent="2"><mxGeometry y="80" width="160" height="8" as="geometry"/></mxCell><mxCell id="5" value="+ operation()" style="text;strokeColor=none;fillColor=none;align=left;verticalAlign=top;spacingLeft=4;spacingRight=4;overflow=hidden;rotatable=0;points=[[0,0.5],[1,0.5]];portConstraint=eastwest;" vertex="1" parent="2"><mxGeometry y="88" width="160" height="26" as="geometry"/></mxCell><mxCell id="6" value="«interface»&lt;br&gt;&lt;b&gt;Client&lt;/b&gt;" style="html=1;" vertex="1" parent="1"><mxGeometry x="180" y="142" width="110" height="50" as="geometry"/></mxCell><mxCell id="7" value="Subsystem1" style="swimlane;fontStyle=1;align=center;verticalAlign=top;childLayout=stackLayout;horizontal=1;startSize=26;horizontalStack=0;resizeParent=1;resizeParentMax=0;resizeLast=0;collapsible=1;marginBottom=0;" vertex="1" parent="1"><mxGeometry x="240" y="260" width="160" height="80" as="geometry"/></mxCell><mxCell id="9" value="" style="line;strokeWidth=1;fillColor=none;align=left;verticalAlign=middle;spacingTop=-1;spacingLeft=3;spacingRight=3;rotatable=0;labelPosition=right;points=[];portConstraint=eastwest;" vertex="1" parent="7"><mxGeometry y="26" width="160" height="8" as="geometry"/></mxCell><mxCell id="10" value="+ operation1()&#10;+ operation2()" style="text;strokeColor=none;fillColor=none;align=left;verticalAlign=top;spacingLeft=4;spacingRight=4;overflow=hidden;rotatable=0;points=[[0,0.5],[1,0.5]];portConstraint=eastwest;" vertex="1" parent="7"><mxGeometry y="34" width="160" height="46" as="geometry"/></mxCell><mxCell id="11" value="Subsystem2" style="swimlane;fontStyle=1;align=center;verticalAlign=top;childLayout=stackLayout;horizontal=1;startSize=26;horizontalStack=0;resizeParent=1;resizeParentMax=0;resizeLast=0;collapsible=1;marginBottom=0;" vertex="1" parent="1"><mxGeometry x="400" y="260" width="160" height="80" as="geometry"/></mxCell><mxCell id="13" value="" style="line;strokeWidth=1;fillColor=none;align=left;verticalAlign=middle;spacingTop=-1;spacingLeft=3;spacingRight=3;rotatable=0;labelPosition=right;points=[];portConstraint=eastwest;" vertex="1" parent="11"><mxGeometry y="26" width="160" height="8" as="geometry"/></mxCell><mxCell id="14" value="+ operation1()&#10;+ operation2()" style="text;strokeColor=none;fillColor=none;align=left;verticalAlign=top;spacingLeft=4;spacingRight=4;overflow=hidden;rotatable=0;points=[[0,0.5],[1,0.5]];portConstraint=eastwest;" vertex="1" parent="11"><mxGeometry y="34" width="160" height="46" as="geometry"/></mxCell><mxCell id="15" value="" style="endArrow=open;endFill=1;endSize=12;html=1;" edge="1" parent="1"><mxGeometry width="160" relative="1" as="geometry"><mxPoint x="290" y="170" as="sourcePoint"/><mxPoint x="320" y="170" as="targetPoint"/></mxGeometry></mxCell><mxCell id="16" value="Use" style="endArrow=open;endSize=12;dashed=1;html=1;exitX=0;exitY=0.5;exitDx=0;exitDy=0;entryX=0.5;entryY=0;entryDx=0;entryDy=0;" edge="1" parent="1" source="5" target="7"><mxGeometry width="160" relative="1" as="geometry"><mxPoint x="260" y="230" as="sourcePoint"/><mxPoint x="420" y="230" as="targetPoint"/></mxGeometry></mxCell><mxCell id="18" value="Use" style="endArrow=open;endSize=12;dashed=1;html=1;exitX=1;exitY=0.5;exitDx=0;exitDy=0;entryX=0.5;entryY=0;entryDx=0;entryDy=0;" edge="1" parent="1" source="5" target="11"><mxGeometry width="160" relative="1" as="geometry"><mxPoint x="510" y="220" as="sourcePoint"/><mxPoint x="670" y="220" as="targetPoint"/></mxGeometry></mxCell></root></mxGraphModel></diagram></mxfile>